<?xml version="1.0" encoding="iso-8859-1"?>
<!-- Generator: Adobe Illustrator 19.0.0, SVG Export Plug-In . SVG Version: 6.00 Build 0)  -->
<svg version="1.1" id="Capa_1" xmlns="http://www.w3.org/2000/svg" xmlns:xlink="http://www.w3.org/1999/xlink" x="0px" y="0px"
	 viewBox="0 0 512.002 512.002" style="enable-background:new 0 0 512.002 512.002;" xml:space="preserve">
<path style="fill:#4DBBEB;" d="M496.14,467.863c7.81,7.81,7.81,20.47,0,28.28s-20.47,7.81-28.28,0l-22.62-22.62l28.28-28.28
	L496.14,467.863z"/>
<path style="fill:#FD3C65;" d="M339.76,339.763c1.78-1.78,3.23-3.9,4.24-6.26l5.34-12.45l124.18,124.19l-28.28,28.28l-124.19-124.18
	l12.45-5.34C335.86,342.993,337.98,341.543,339.76,339.763z"/>
<path style="fill:#F0F0F0;" d="M256,396.003c27.61,0,50,22.39,50,50s-22.39,50-50,50s-50-22.39-50-50S228.39,396.003,256,396.003z"
	/>
<path style="fill:#FEC761;" d="M496.14,100.713c4.73-4.73,6.78-11.51,5.47-18.06c-7.29-36.47-35.79-64.97-72.26-72.26
	c-6.55-1.31-13.33,0.74-18.06,5.47L256,179.393l-0.08,0.08L100.71,15.863c-4.73-4.73-11.51-6.78-18.06-5.47
	c-18.23,3.65-34.48,12.59-47.07,25.19c-12.6,12.59-21.54,28.84-25.19,47.07c-0.26,1.3-0.39,2.62-0.39,3.92
	c0,5.25,2.07,10.35,5.86,14.14l165.73,157.22l-0.08,0.09l-31.58,33.34l12.73,29.69l5.34,12.45c1.01,2.36,2.46,4.48,4.24,6.26
	s3.9,3.23,6.26,4.24l12.45,5.34l29.69,12.73l35.36-33.5l0.02-0.02l35.34,33.52l29.69-12.73l12.45-5.34
	c2.36-1.01,4.48-2.46,6.26-4.24s3.23-3.9,4.24-6.26l5.34-12.45l12.73-29.69l-31.61-33.32l0.03-0.02L496.14,100.713z"/>
<path style="fill:#FD3C65;" d="M172.24,339.763c1.78,1.78,3.9,3.23,6.26,4.24l12.45,5.34L66.76,473.523l-28.28-28.28l124.18-124.19
	l5.34,12.45C169.01,335.863,170.46,337.983,172.24,339.763z"/>
<path style="fill:#4DBBEB;" d="M66.76,473.523l-22.62,22.62c-7.81,7.81-20.47,7.81-28.28,0s-7.81-20.47,0-28.28l22.62-22.62
	L66.76,473.523z"/>
<path d="M192.36,192.363c-3.9,3.91-3.9,10.24,0,14.14c3.91,3.91,10.24,3.91,14.14,0c3.91-3.9,3.91-10.23,0-14.14
	C202.6,188.463,196.27,188.463,192.36,192.363z"/>
<path d="M361.199,318.771l10.062-23.467c1.574-3.67,0.813-7.926-1.936-10.823l-24.728-26.065l158.428-150.451
	c0.063-0.059,0.124-0.118,0.185-0.179c7.109-7.108,10.177-17.236,8.206-27.092c-8.106-40.557-39.55-72-80.105-80.106
	c-9.853-1.971-19.982,1.097-27.093,8.206c-0.061,0.061-0.12,0.122-0.179,0.185l-148.112,155.97L107.965,8.981
	c-0.061-0.063-0.121-0.126-0.183-0.188C100.674,1.685,90.55-1.38,80.688,0.587C60.834,4.563,42.79,14.22,28.512,28.509
	C14.217,42.793,4.56,60.837,0.584,80.694C0.196,82.631,0,84.61,0,86.574c0,8.01,3.121,15.543,8.789,21.211
	c0.063,0.062,0.125,0.123,0.188,0.184l158.481,150.348l-24.789,26.171c-2.745,2.897-3.504,7.149-1.931,10.817l10.062,23.466
	L8.79,460.792c-5.667,5.666-8.787,13.198-8.787,21.211s3.12,15.545,8.786,21.21C14.455,508.88,21.987,512,30,512
	s15.545-3.12,21.211-8.786l142.022-142.013l23.466,10.063c1.27,0.545,2.608,0.81,3.938,0.81c2.511,0,4.985-0.945,6.88-2.74
	l28.502-27.002l28.459,26.999c1.896,1.797,4.371,2.744,6.884,2.744c1.329,0,2.669-0.265,3.938-0.81l23.466-10.062l142.022,142.011
	C466.455,508.88,473.987,512,482,512s15.545-3.12,21.21-8.786c5.667-5.666,8.787-13.198,8.787-21.211s-3.12-15.545-8.786-21.211
	L361.199,318.771z M338.542,352.692c1.186-0.565,2.325-1.207,3.419-1.918c2.174-0.244,4.283-1.193,5.95-2.859
	c1.667-1.667,2.616-3.777,2.86-5.951c0.711-1.095,1.354-2.235,1.918-3.419l106.689,106.698l-14.139,14.139L338.542,352.692z
	 M418.437,22.86c2.365-2.316,5.701-3.311,8.953-2.661c32.611,6.52,57.896,31.804,64.415,64.416c0.649,3.249-0.345,6.587-2.66,8.951
	L330.833,243.907l-61.123-64.43L418.437,22.86z M181.968,272.08l22.483,21.329l-29.929,29.929l-12.81-29.873L181.968,272.08z
	 M66.761,459.382l-14.14-14.139L159.31,338.545c0.565,1.185,1.207,2.325,1.918,3.419c0.244,2.174,1.193,4.284,2.86,5.951
	s3.776,2.615,5.95,2.859c1.095,0.712,2.235,1.354,3.42,1.918L66.761,459.382z M37.068,489.073C35.18,490.96,32.67,492,30,492
	s-5.18-1.04-7.069-2.929c-1.888-1.889-2.928-4.398-2.928-7.068s1.04-5.18,2.929-7.068l15.548-15.549l14.138,14.138L37.068,489.073z
	 M218.536,350.291l-29.871-12.81l30.302-30.302l22.522,21.366L218.536,350.291z M293.468,350.289l-104.995-99.611L22.854,93.565
	C21.013,91.683,20,89.205,20,86.574c0-0.65,0.065-1.311,0.195-1.956C23.393,68.65,31.156,54.14,42.654,42.652
	C54.137,31.16,68.646,23.396,84.611,20.199c3.246-0.648,6.585,0.344,8.949,2.658l256.726,270.614l-12.808,29.867L234.791,220.652
	c-3.906-3.904-10.236-3.904-14.143,0c-3.905,3.905-3.905,10.237,0,14.143l102.687,102.687L293.468,350.289z M489.068,489.073
	C487.18,490.96,484.67,492,482,492s-5.18-1.04-7.068-2.929l-15.549-15.548l14.138-14.138l15.549,15.55
	c1.888,1.889,2.928,4.398,2.928,7.068S490.957,487.183,489.068,489.073z"/>
<path d="M256,386.003c-33.084,0-60,26.916-60,60s26.916,60,60,60s60-26.916,60-60S289.084,386.003,256,386.003z M256,486.003
	c-22.056,0-40-17.944-40-40s17.944-40,40-40s40,17.944,40,40S278.056,486.003,256,486.003z"/>
<g>
</g>
<g>
</g>
<g>
</g>
<g>
</g>
<g>
</g>
<g>
</g>
<g>
</g>
<g>
</g>
<g>
</g>
<g>
</g>
<g>
</g>
<g>
</g>
<g>
</g>
<g>
</g>
<g>
</g>
</svg>
